<svg width="38" height="36" viewBox="0 0 38 36" fill="none" xmlns="http://www.w3.org/2000/svg">
<path d="M33.6804 19.0588C33.6804 19.0588 35.1035 20.642 35.2094 20.4836C35.3006 20.3458 36.6532 10.7031 36.9972 8.23447C37.0296 7.99406 36.7796 7.81816 36.562 7.92956L34.9742 8.75048C34.192 9.15507 33.698 9.96132 33.698 10.8438L33.6804 19.0588Z" fill="url(#paint0_radial_252_1833)"/>
<path d="M4.31969 19.0588C4.31969 19.0588 2.8965 20.642 2.79065 20.4836C2.69949 20.3458 1.34688 10.7031 1.00284 8.23447C0.970497 7.99406 1.22044 7.81816 1.43803 7.92956L3.02589 8.75048C3.80805 9.15507 4.30205 9.96132 4.30205 10.8438L4.31969 19.0588Z" fill="url(#paint1_radial_252_1833)"/>
<path d="M33.6804 19.0588C33.6804 19.0588 35.1035 20.642 35.2094 20.4836C35.3006 20.3458 36.6532 10.7031 36.9972 8.23447C37.0296 7.99406 36.7796 7.81816 36.562 7.92956L34.9742 8.75048C34.192 9.15507 33.698 9.96132 33.698 10.8438L33.6804 19.0588Z" stroke="#6D7783" stroke-width="0.5" stroke-miterlimit="10"/>
<path d="M4.31969 19.0588C4.31969 19.0588 2.8965 20.642 2.79065 20.4836C2.69949 20.3458 1.34688 10.7031 1.00284 8.23447C0.970497 7.99406 1.22044 7.81816 1.43803 7.92956L3.02589 8.75048C3.80805 9.15507 4.30205 9.96132 4.30205 10.8438L4.31969 19.0588Z" stroke="#6D7783" stroke-width="0.5" stroke-miterlimit="10"/>
<path d="M4.16978 19.044C4.16978 19.044 2.12027 20.0613 1.8468 21.539C1.57334 23.0166 2.15261 27.5522 3.8228 28.2881C5.49299 29.0239 6.40747 28.9712 6.40747 28.9712" fill="url(#paint2_radial_252_1833)"/>
<path d="M33.8302 19.044C33.8302 19.044 35.8797 20.0613 36.1532 21.539C36.4267 23.0166 35.8474 27.5522 34.1772 28.2881C32.507 29.0269 31.5925 28.9712 31.5925 28.9712" fill="url(#paint3_radial_252_1833)"/>
<path d="M4.16978 19.044C4.16978 19.044 2.12027 20.0613 1.8468 21.539C1.57334 23.0166 2.15261 27.5522 3.8228 28.2881C5.49299 29.0239 6.40747 28.9712 6.40747 28.9712" stroke="#6D7783" stroke-width="0.5" stroke-miterlimit="10"/>
<path d="M33.8302 19.044C33.8302 19.044 35.8797 20.0613 36.1532 21.539C36.4267 23.0166 35.8474 27.5522 34.1772 28.2881C32.507 29.0269 31.5925 28.9712 31.5925 28.9712" stroke="#6D7783" stroke-width="0.5" stroke-miterlimit="10"/>
<path d="M30.7163 30.094C27.0848 33.6591 19.0014 33.75 19.0014 33.75C19.0014 33.75 10.9181 33.6591 7.2866 30.094C3.65512 26.5318 3.65512 14.9072 4.92246 12.0955C6.19568 9.28392 11.3739 5.625 19.0014 5.625C26.629 5.625 31.8042 9.28392 33.0775 12.0955C34.3507 14.9072 34.3507 26.5318 30.7163 30.094Z" fill="url(#paint4_radial_252_1833)"/>
<path d="M30.7163 30.094C27.0848 33.6591 19.0014 33.75 19.0014 33.75C19.0014 33.75 10.9181 33.6591 7.2866 30.094C3.65512 26.5318 3.65512 14.9072 4.92246 12.0955C6.19568 9.28392 11.3739 5.625 19.0014 5.625C26.629 5.625 31.8042 9.28392 33.0775 12.0955C34.3507 14.9072 34.3507 26.5318 30.7163 30.094Z" stroke="#6D7783" stroke-width="0.5" stroke-miterlimit="10"/>
<path d="M30.0839 28.584C28.144 30.8384 22.7283 31.1679 19.0016 31.1679C15.2749 31.1679 9.8592 30.8384 7.91628 28.584C5.97642 26.3264 5.72247 18.8491 7.55829 17.818C9.39718 16.7899 10.6241 18.2451 12.359 19.3464C14.0969 20.4477 19.0016 20.2281 19.0016 20.2281C19.0016 20.2281 23.9063 20.4477 25.6412 19.3464C27.3791 18.2451 28.606 16.7899 30.4419 17.818C32.2808 18.8491 32.0268 26.3295 30.0839 28.584Z" fill="#383838"/>
<path d="M17.6743 27.3626C17.4171 27.3626 17.2321 27.6098 17.3039 27.8566C17.5179 28.5916 18.1963 29.1289 19.0003 29.1289C19.8043 29.1289 20.4833 28.5916 20.6967 27.8566C20.7685 27.6098 20.5836 27.3626 20.3264 27.3626H17.6738H17.6743Z" fill="#3A2C60"/>
<path d="M17.6743 27.3626C17.4171 27.3626 17.2321 27.6098 17.3039 27.8566C17.5179 28.5916 18.1963 29.1289 19.0003 29.1289C19.8043 29.1289 20.4833 28.5916 20.6967 27.8566C20.7685 27.6098 20.5836 27.3626 20.3264 27.3626H17.6738H17.6743Z" fill="url(#paint5_radial_252_1833)"/>
<path d="M34.8272 19.689C34.8272 19.689 35.427 22.1899 34.2332 25.7315" stroke="#6D7783" stroke-width="0.5" stroke-miterlimit="10" stroke-linecap="round"/>
<path d="M3.17591 19.689C3.17591 19.689 2.57605 22.1899 3.76988 25.7315" stroke="#6D7783" stroke-width="0.5" stroke-miterlimit="10" stroke-linecap="round"/>
<path d="M32.7363 11.4739C32.9745 14.1975 32.9686 14.6666 31.716 15.5755C31.375 17.4643 31.5685 19.3226 31.6948 21.2122M5.26239 11.4741C5.02421 14.1977 5.03009 14.6668 6.28273 15.5757C6.6238 17.4652 6.44242 19.3233 6.29744 21.2122M31.6948 21.2122C31.8165 23.797 31.2575 26.9844 30.1034 28.3266C28.1568 30.5841 22.6992 31.1676 18.9648 31.1676C15.2305 31.1676 9.83469 30.5841 7.89104 28.3266C6.73517 26.9844 6.17545 23.797 6.29744 21.2122M31.6948 21.2122C31.6116 19.4441 31.2098 17.9579 30.4621 17.5375C28.6184 16.5055 27.3893 17.9656 25.6515 19.0679C23.9107 20.1703 18.9943 19.9504 18.9943 19.9504C18.9943 19.9504 14.0807 20.1703 12.3429 19.0679C10.6022 17.9656 9.37304 16.5055 7.5323 17.5375C6.78339 17.9579 6.3809 19.4441 6.29744 21.2122" stroke="#6D7783" stroke-width="0.5" stroke-miterlimit="10"/>
<path d="M21.2715 15.7896C20.6658 16.42 19.8483 16.7777 19.0014 16.7777C18.1499 16.7777 17.335 16.4179 16.7343 15.7896C14.2393 13.1859 11.7283 10.5974 9.23615 7.99098C10.0977 7.51309 11.0651 7.07625 12.1325 6.71564C14.5256 9.00231 16.6391 11.6778 18.8632 14.1302C18.9368 14.2182 19.0632 14.2182 19.1396 14.1332C21.3638 11.6802 23.4778 9.00952 25.8674 6.71857C26.9319 7.07625 27.8993 7.51016 28.752 7.98805L21.2715 15.7896Z" stroke="#6D7783" stroke-width="0.5" stroke-miterlimit="10"/>
<path d="M23.1975 6.82705L19.2308 10.4273C19.0985 10.5475 18.9044 10.5475 18.7751 10.4273L14.8084 6.82705C14.6907 6.7215 14.6907 6.53093 14.8084 6.42539L15.37 5.91525C16.505 5.72761 17.7194 5.625 19.0015 5.625C20.2835 5.625 21.4979 5.72761 22.6359 5.91818L23.1975 6.42539C23.3151 6.53093 23.3151 6.7215 23.1975 6.82705Z" fill="#D13A41"/>
<path d="M30.7163 30.094C27.0819 33.6591 19.0015 33.75 19.0015 33.75C19.0015 33.75 10.9181 33.6591 7.28664 30.094C3.65222 26.5318 3.65222 14.9072 4.9225 12.0955C5.98107 9.75594 9.74193 6.82998 15.37 5.91525C16.505 5.72761 17.7194 5.625 19.0015 5.625C20.2835 5.625 21.4979 5.72761 22.6359 5.91818C28.261 6.83291 32.0189 9.75594 33.0746 12.0955C34.3478 14.9072 34.3478 26.5318 30.7163 30.094Z" stroke="#6D7783" stroke-width="0.5" stroke-miterlimit="10"/>
<path d="M13.0235 25.8282C13.8485 25.8282 14.5172 24.8241 14.5172 23.5854C14.5172 22.3467 13.8485 21.3425 13.0235 21.3425C12.1985 21.3425 11.5297 22.3467 11.5297 23.5854C11.5297 24.8241 12.1985 25.8282 13.0235 25.8282Z" fill="url(#paint6_radial_252_1833)"/>
<path d="M24.9795 25.8282C25.8045 25.8282 26.4732 24.8241 26.4732 23.5854C26.4732 22.3467 25.8045 21.3425 24.9795 21.3425C24.1545 21.3425 23.4857 22.3467 23.4857 23.5854C23.4857 24.8241 24.1545 25.8282 24.9795 25.8282Z" fill="url(#paint7_radial_252_1833)"/>
<path d="M30.3412 2.25L29.8 4.52049" stroke="#6D7783" stroke-width="0.5" stroke-miterlimit="10" stroke-linecap="round"/>
<path d="M32.7984 3.04626L31.2992 5.39853" stroke="#6D7783" stroke-width="0.5" stroke-miterlimit="10" stroke-linecap="round"/>
<path d="M35.1475 4.91748L32.5483 6.56664" stroke="#6D7783" stroke-width="0.5" stroke-miterlimit="10" stroke-linecap="round"/>
<defs>
<radialGradient id="paint0_radial_252_1833" cx="0" cy="0" r="1" gradientUnits="userSpaceOnUse" gradientTransform="translate(35.0252 14.1358) rotate(3.86863) scale(4.5008 4.62648)">
<stop stop-color="white"/>
<stop offset="0.28" stop-color="#FBFBFB"/>
<stop offset="0.55" stop-color="#EFEFEF"/>
<stop offset="0.83" stop-color="#DBDBDB"/>
<stop offset="0.99" stop-color="#CCCCCC"/>
</radialGradient>
<radialGradient id="paint1_radial_252_1833" cx="0" cy="0" r="1" gradientUnits="userSpaceOnUse" gradientTransform="translate(-0.160132 14.3313) rotate(176.131) scale(4.5008 4.62648)">
<stop stop-color="white"/>
<stop offset="0.28" stop-color="#FBFBFB"/>
<stop offset="0.55" stop-color="#EFEFEF"/>
<stop offset="0.83" stop-color="#DBDBDB"/>
<stop offset="0.99" stop-color="#CCCCCC"/>
</radialGradient>
<radialGradient id="paint2_radial_252_1833" cx="0" cy="0" r="1" gradientUnits="userSpaceOnUse" gradientTransform="translate(4.01772 24.0105) scale(3.79065 3.8964)">
<stop stop-color="white"/>
<stop offset="0.28" stop-color="#FBFBFB"/>
<stop offset="0.55" stop-color="#EFEFEF"/>
<stop offset="0.83" stop-color="#DBDBDB"/>
<stop offset="0.99" stop-color="#CCCCCC"/>
</radialGradient>
<radialGradient id="paint3_radial_252_1833" cx="0" cy="0" r="1" gradientUnits="userSpaceOnUse" gradientTransform="translate(33.9578 24.0105) scale(3.79065 3.8964)">
<stop stop-color="white"/>
<stop offset="0.28" stop-color="#FBFBFB"/>
<stop offset="0.55" stop-color="#EFEFEF"/>
<stop offset="0.83" stop-color="#DBDBDB"/>
<stop offset="0.99" stop-color="#CCCCCC"/>
</radialGradient>
<radialGradient id="paint4_radial_252_1833" cx="0" cy="0" r="1" gradientUnits="userSpaceOnUse" gradientTransform="translate(18.9891 19.686) scale(16.7285 17.1952)">
<stop stop-color="white"/>
<stop offset="0.28" stop-color="#FBFBFB"/>
<stop offset="0.55" stop-color="#EFEFEF"/>
<stop offset="0.83" stop-color="#DBDBDB"/>
<stop offset="0.99" stop-color="#CCCCCC"/>
</radialGradient>
<radialGradient id="paint5_radial_252_1833" cx="0" cy="0" r="1" gradientUnits="userSpaceOnUse" gradientTransform="translate(18.9564 28.2367) scale(2.08561 0.765992)">
<stop stop-color="white"/>
<stop offset="0.21" stop-color="#FBFBFC"/>
<stop offset="0.42" stop-color="#EFEFF6"/>
<stop offset="0.62" stop-color="#DBDDEB"/>
<stop offset="0.82" stop-color="#C0C2DC"/>
<stop offset="0.99" stop-color="#A3A7CC"/>
</radialGradient>
<radialGradient id="paint6_radial_252_1833" cx="0" cy="0" r="1" gradientUnits="userSpaceOnUse" gradientTransform="translate(12.9852 23.5623) scale(1.81974 1.94533)">
<stop stop-color="white"/>
<stop offset="0.21" stop-color="#FBFBFC"/>
<stop offset="0.42" stop-color="#EFEFF6"/>
<stop offset="0.62" stop-color="#DBDDEB"/>
<stop offset="0.82" stop-color="#C0C2DC"/>
<stop offset="0.99" stop-color="#A3A7CC"/>
</radialGradient>
<radialGradient id="paint7_radial_252_1833" cx="0" cy="0" r="1" gradientUnits="userSpaceOnUse" gradientTransform="translate(24.9412 23.5623) scale(1.81974 1.94533)">
<stop stop-color="white"/>
<stop offset="0.21" stop-color="#FBFBFC"/>
<stop offset="0.42" stop-color="#EFEFF6"/>
<stop offset="0.62" stop-color="#DBDDEB"/>
<stop offset="0.82" stop-color="#C0C2DC"/>
<stop offset="0.99" stop-color="#A3A7CC"/>
</radialGradient>
</defs>
</svg>
