<svg width="40" height="40" viewBox="0 0 40 40" fill="none" xmlns="http://www.w3.org/2000/svg">
<path d="M29.6835 36.604H10.3174C6.83162 36.604 3.97925 33.7517 3.97925 30.2659V20.7592C3.97925 17.2735 6.83162 14.4211 10.3174 14.4211H29.6835C33.1693 14.4211 36.0216 17.2735 36.0216 20.7592V30.2668C36.0216 33.7526 33.1693 36.6049 29.6835 36.6049V36.604Z" fill="#F3B9C0"/>
<path d="M29.6835 14.4211H10.3174C6.83162 14.4211 3.97925 17.2735 3.97925 20.7592V22.1426C3.97925 18.656 6.83162 15.8045 10.3174 15.8045H29.6835C33.1693 15.8045 36.0216 18.6569 36.0216 22.1426V20.7592C36.0216 17.2726 33.1693 14.4211 29.6835 14.4211Z" fill="white"/>
<path d="M9.75608 34.654C8.86705 34.6531 8.01544 34.2994 7.38653 33.6714C6.75762 33.0425 6.40486 32.1909 6.40308 31.3019V21.2429C6.40397 20.3538 6.75762 19.5013 7.38653 18.8733C8.01544 18.2444 8.86705 17.8916 9.75608 17.8899H30.2456C31.1346 17.8908 31.9871 18.2444 32.6151 18.8733C33.244 19.5022 33.5968 20.3538 33.5986 21.2429V31.3019C33.5977 32.1909 33.244 33.0425 32.6151 33.6714C31.9862 34.3003 31.1346 34.6531 30.2456 34.654H9.75608Z" fill="#FFD7E5"/>
<path d="M3.97825 21.8648V28.8995C2.03451 28.8995 0.460449 27.3255 0.460449 25.3817C0.460449 23.438 2.03451 21.8639 3.97825 21.8639V21.8648ZM39.5384 25.3826C39.5384 25.8449 39.4476 26.3019 39.2712 26.7286C39.0948 27.1553 38.8356 27.5428 38.5087 27.8697C38.1817 28.1967 37.7942 28.4559 37.3675 28.6323C36.9408 28.8087 36.483 28.8995 36.0215 28.8995V21.8648C36.4839 21.8648 36.9408 21.9557 37.3675 22.1321C37.7942 22.3084 38.1817 22.5677 38.5087 22.8946C38.8356 23.2215 39.0939 23.609 39.2712 24.0357C39.4476 24.4624 39.5384 24.9203 39.5384 25.3817V25.3826ZM19.9994 10.9043C19.5371 10.9043 19.0801 10.9952 18.6534 11.1715C18.2267 11.3479 17.8383 11.6071 17.5123 11.9341C17.1854 12.261 16.927 12.6485 16.7498 13.0752C16.5734 13.5019 16.4825 13.9598 16.4825 14.4212H23.5181C23.5181 13.9589 23.4273 13.5019 23.2509 13.0752C23.0745 12.6485 22.8153 12.261 22.4884 11.9341C22.1614 11.6071 21.7739 11.3488 21.3472 11.1715C20.9205 10.9952 20.4627 10.9043 20.0012 10.9043H19.9994Z" fill="#D1132A"/>
<path d="M19.9995 6.7112C20.8992 6.7112 21.6279 5.98163 21.6279 5.0828C21.6279 4.18398 20.8983 3.45441 19.9995 3.45441C19.1007 3.45441 18.3711 4.18398 18.3711 5.0828C18.3711 5.98163 19.1007 6.7112 19.9995 6.7112Z" fill="#D1132A"/>
<path d="M36.4822 21.4327V20.7602C36.4822 17.0107 33.432 13.9606 29.6835 13.9606H23.9494C23.8443 13.0716 23.4434 12.244 22.81 11.6115C22.1776 10.9791 21.3491 10.5773 20.461 10.4722V7.11831C21.391 6.90719 22.0894 6.07695 22.0894 5.0837C22.0894 3.931 21.1523 2.99387 19.9995 2.99387C18.8468 2.99387 17.9106 3.931 17.9106 5.0837C17.9106 6.07695 18.609 6.90719 19.539 7.11831V10.4722C18.65 10.5773 17.8224 10.9782 17.1899 11.6115C16.5575 12.244 16.1557 13.0716 16.0506 13.9606H10.3173C6.56793 13.9606 3.5178 17.0107 3.5178 20.7602V21.4327C1.54021 21.6617 0 23.3444 0 25.3826C0 27.4207 1.54021 29.1026 3.5178 29.3324V30.2669C3.5178 34.0163 6.56793 37.0664 10.3173 37.0664H29.6835C33.432 37.0664 36.4822 34.0163 36.4822 30.2669V29.3324C38.4598 29.1026 40 27.4207 40 25.3826C40 23.3444 38.4598 21.6625 36.4822 21.4327ZM18.8326 5.0837C18.8326 4.77459 18.9564 4.47795 19.1747 4.25881C19.3938 4.03968 19.6904 3.91674 19.9995 3.91585C20.6436 3.91585 21.1674 4.43965 21.1674 5.0837C21.1674 5.72776 20.6436 6.25066 19.9995 6.25066C19.6904 6.25066 19.3938 6.12684 19.1747 5.90859C18.9555 5.68945 18.8326 5.39281 18.8326 5.0837ZM19.9995 11.3657C21.5282 11.3657 22.7985 12.4935 23.0212 13.9606H16.9779C17.2006 12.4935 18.4709 11.3657 19.9995 11.3657ZM0.921987 25.3826C0.921987 23.8539 2.04975 22.5836 3.51691 22.3609V28.4042C2.04975 28.1806 0.921987 26.9103 0.921987 25.3826ZM35.5593 30.2669C35.5593 33.5076 32.9225 36.1444 29.6826 36.1444H10.3165C7.07569 36.1444 4.43979 33.5076 4.43979 30.2669V20.7602C4.43979 17.5194 7.07658 14.8826 10.3165 14.8826H29.6826C32.9225 14.8826 35.5593 17.5185 35.5593 20.7602V30.2669ZM36.4813 28.4042V22.3609C37.9484 22.5836 39.0762 23.8539 39.0762 25.3826C39.0762 26.9112 37.9484 28.1815 36.4813 28.4042Z" fill="#3A2C60"/>
<path d="M33.6521 9.78372L33.0508 12.3065" stroke="#3A2C60" stroke-width="0.5" stroke-miterlimit="10" stroke-linecap="round"/>
<path d="M36.3824 10.6682L34.7166 13.2818" stroke="#3A2C60" stroke-width="0.5" stroke-miterlimit="10" stroke-linecap="round"/>
<path d="M38.9925 12.7474L36.1045 14.5798" stroke="#3A2C60" stroke-width="0.5" stroke-miterlimit="10" stroke-linecap="round"/>
<path d="M21.6404 27.6588C21.6164 27.6891 21.0454 28.4062 19.9987 28.4062C18.952 28.4062 18.3908 27.7033 18.3631 27.6677C18.2901 27.5715 18.1823 27.5073 18.0629 27.4895C17.9436 27.4717 17.8215 27.5011 17.7244 27.5724C17.6264 27.6436 17.5605 27.7496 17.5409 27.869C17.5213 27.9884 17.548 28.1104 17.6175 28.2093C17.6505 28.2547 18.4424 29.3281 19.9987 29.3281C21.5549 29.3281 22.3397 28.2627 22.3736 28.2182C22.4475 28.1211 22.4787 27.9991 22.4626 27.8788C22.4466 27.7585 22.3825 27.649 22.2863 27.575C22.1892 27.5011 22.0671 27.4681 21.9469 27.4842C21.8257 27.4993 21.7161 27.5626 21.6413 27.6588H21.6404Z" fill="#3A2C60"/>
<path d="M17.5159 26.7492C17.034 26.7492 16.6874 27.2125 16.822 27.6748C17.2228 29.052 18.494 30.0586 20.0004 30.0586C21.5067 30.0586 22.7788 29.052 23.1788 27.6748C23.3133 27.2125 22.9668 26.7492 22.4848 26.7492H17.515H17.5159Z" fill="#3A2C60"/>
<path d="M21.7534 29.034L21.1236 29.369C20.4216 29.7422 19.5798 29.7422 18.8778 29.369L18.248 29.034L18.8778 28.6991C19.5798 28.3258 20.4216 28.3258 21.1236 28.6991L21.7534 29.034Z" fill="#FFD7E5"/>
<path d="M26.6031 25.2125C27.697 25.2125 28.5833 24.3262 28.5833 23.2323C28.5833 22.1383 27.6961 21.252 26.6031 21.252C25.51 21.252 24.6228 22.1392 24.6228 23.2323C24.6228 24.3253 25.5092 25.2125 26.6031 25.2125Z" fill="#3A2C60"/>
<path d="M13.722 21.2511C12.6325 21.2511 11.7417 22.1428 11.7417 23.2314C11.7417 24.3199 12.6334 25.2116 13.722 25.2116C14.8105 25.2116 15.7022 24.3199 15.7022 23.2314C15.7022 22.1428 14.8114 21.2511 13.722 21.2511Z" fill="#3A2C60"/>
</svg>
