<svg width="44" height="44" viewBox="0 0 44 44" fill="none" xmlns="http://www.w3.org/2000/svg">
<rect width="44" height="44" rx="22" fill="#FFECEC"/>
<path d="M28.7784 33.6228H15.2221C12.7821 33.6228 10.7854 31.6262 10.7854 29.1862V22.5315C10.7854 20.0914 12.7821 18.0948 15.2221 18.0948H28.7784C31.2184 18.0948 33.2151 20.0914 33.2151 22.5315V29.1868C33.2151 31.6268 31.2184 33.6235 28.7784 33.6235V33.6228Z" fill="#F3B9C0"/>
<path d="M28.7784 18.0948H15.2221C12.7821 18.0948 10.7854 20.0914 10.7854 22.5315V23.4999C10.7854 21.0592 12.7821 19.0632 15.2221 19.0632H28.7784C31.2184 19.0632 33.2151 21.0598 33.2151 23.4999V22.5315C33.2151 20.0908 31.2184 18.0948 28.7784 18.0948Z" fill="white"/>
<path d="M14.8293 32.2578C14.207 32.2572 13.6108 32.0096 13.1706 31.57C12.7304 31.1298 12.4834 30.5336 12.4822 29.9113V22.87C12.4828 22.2477 12.7304 21.6509 13.1706 21.2113C13.6108 20.7711 14.207 20.5242 14.8293 20.5229H29.1719C29.7942 20.5235 30.391 20.7711 30.8306 21.2113C31.2708 21.6516 31.5178 22.2477 31.519 22.87V29.9113C31.5184 30.5336 31.2708 31.1298 30.8306 31.57C30.3904 32.0102 29.7942 32.2572 29.1719 32.2578H14.8293Z" fill="#FFD7E5"/>
<path d="M10.7847 23.3054V28.2297C9.42411 28.2297 8.32227 27.1278 8.32227 25.7672C8.32227 24.4066 9.42411 23.3048 10.7847 23.3048V23.3054ZM35.6769 25.7678C35.6769 26.0915 35.6133 26.4114 35.4898 26.7101C35.3663 27.0087 35.1849 27.28 34.956 27.5088C34.7272 27.7377 34.4559 27.9192 34.1572 28.0426C33.8585 28.1661 33.538 28.2297 33.215 28.2297V23.3054C33.5387 23.3054 33.8585 23.369 34.1572 23.4925C34.4559 23.6159 34.7272 23.7974 34.956 24.0262C35.1849 24.2551 35.3657 24.5263 35.4898 24.825C35.6133 25.1237 35.6769 25.4442 35.6769 25.7672V25.7678ZM21.9996 15.633C21.6759 15.633 21.356 15.6966 21.0574 15.8201C20.7587 15.9436 20.4868 16.125 20.2586 16.3539C20.0297 16.5827 19.8489 16.854 19.7248 17.1527C19.6013 17.4513 19.5377 17.7719 19.5377 18.0949H24.4627C24.4627 17.7712 24.399 17.4513 24.2756 17.1527C24.1521 16.854 23.9707 16.5827 23.7418 16.3539C23.513 16.125 23.2417 15.9442 22.943 15.8201C22.6443 15.6966 22.3238 15.633 22.0008 15.633H21.9996Z" fill="#D1132A"/>
<path d="M21.9997 12.6979C22.6295 12.6979 23.1396 12.1872 23.1396 11.558C23.1396 10.9288 22.6289 10.4181 21.9997 10.4181C21.3706 10.4181 20.8599 10.9288 20.8599 11.558C20.8599 12.1872 21.3706 12.6979 21.9997 12.6979Z" fill="#D1132A"/>
<path d="M33.5375 23.0029V22.5321C33.5375 19.9075 31.4024 17.7724 28.7785 17.7724H24.7646C24.691 17.1501 24.4104 16.5708 23.967 16.1281C23.5243 15.6854 22.9444 15.4041 22.3227 15.3306V12.9828C22.9737 12.835 23.4626 12.2539 23.4626 11.5586C23.4626 10.7517 22.8066 10.0957 21.9997 10.0957C21.1928 10.0957 20.5374 10.7517 20.5374 11.5586C20.5374 12.2539 21.0263 12.835 21.6773 12.9828V15.3306C21.055 15.4041 20.4757 15.6847 20.033 16.1281C19.5902 16.5708 19.309 17.1501 19.2354 17.7724H15.2221C12.5976 17.7724 10.4625 19.9075 10.4625 22.5321V23.0029C9.07815 23.1632 8 24.3411 8 25.7678C8 27.1945 9.07815 28.3718 10.4625 28.5327V29.1868C10.4625 31.8114 12.5976 33.9465 15.2221 33.9465H28.7785C31.4024 33.9465 33.5375 31.8114 33.5375 29.1868V28.5327C34.9218 28.3718 36 27.1945 36 25.7678C36 24.3411 34.9218 23.1638 33.5375 23.0029ZM21.1828 11.5586C21.1828 11.3422 21.2695 11.1346 21.4223 10.9812C21.5757 10.8278 21.7833 10.7417 21.9997 10.7411C22.4505 10.7411 22.8172 11.1078 22.8172 11.5586C22.8172 12.0094 22.4505 12.3755 21.9997 12.3755C21.7833 12.3755 21.5757 12.2888 21.4223 12.136C21.2689 11.9826 21.1828 11.775 21.1828 11.5586ZM21.9997 15.956C23.0697 15.956 23.9589 16.7454 24.1148 17.7724H19.8845C20.0404 16.7454 20.9296 15.956 21.9997 15.956ZM8.64539 25.7678C8.64539 24.6978 9.43483 23.8086 10.4618 23.6527V27.8829C9.43483 27.7264 8.64539 26.8372 8.64539 25.7678ZM32.8915 29.1868C32.8915 31.4553 31.0458 33.3011 28.7778 33.3011H15.2215C12.953 33.3011 11.1079 31.4553 11.1079 29.1868V22.5321C11.1079 20.2636 12.9536 18.4178 15.2215 18.4178H28.7778C31.0458 18.4178 32.8915 20.263 32.8915 22.5321V29.1868ZM33.5369 27.8829V23.6527C34.5639 23.8086 35.3533 24.6978 35.3533 25.7678C35.3533 26.8378 34.5639 27.727 33.5369 27.8829Z" fill="#3A2C60"/>
<path d="M31.5564 14.8486L31.1355 16.6145" stroke="#3A2C60" stroke-width="0.5" stroke-miterlimit="10" stroke-linecap="round"/>
<path d="M33.4676 15.4677L32.3015 17.2973" stroke="#3A2C60" stroke-width="0.5" stroke-miterlimit="10" stroke-linecap="round"/>
<path d="M35.2948 16.9232L33.2732 18.2058" stroke="#3A2C60" stroke-width="0.5" stroke-miterlimit="10" stroke-linecap="round"/>
<path d="M23.1482 27.3611C23.1314 27.3823 22.7317 27.8843 21.999 27.8843C21.2663 27.8843 20.8734 27.3923 20.8541 27.3674C20.803 27.3 20.7275 27.2551 20.644 27.2427C20.5604 27.2302 20.475 27.2508 20.407 27.3007C20.3384 27.3505 20.2923 27.4247 20.2785 27.5083C20.2648 27.5919 20.2835 27.6773 20.3322 27.7465C20.3552 27.7783 20.9096 28.5297 21.999 28.5297C23.0883 28.5297 23.6377 27.7839 23.6614 27.7527C23.7131 27.6848 23.735 27.5993 23.7237 27.5152C23.7125 27.431 23.6676 27.3543 23.6003 27.3025C23.5323 27.2508 23.4469 27.2277 23.3627 27.2389C23.2779 27.2495 23.2012 27.2938 23.1488 27.3611H23.1482Z" fill="#3A2C60"/>
<path d="M20.2611 26.7245C19.9238 26.7245 19.6812 27.0487 19.7753 27.3724C20.056 28.3364 20.9458 29.041 22.0002 29.041C23.0547 29.041 23.9451 28.3364 24.2251 27.3724C24.3193 27.0487 24.0767 26.7245 23.7394 26.7245H20.2605H20.2611Z" fill="#3A2C60"/>
<path d="M23.2274 28.3238L22.7866 28.5583C22.2952 28.8195 21.7059 28.8195 21.2145 28.5583L20.7737 28.3238L21.2145 28.0894C21.7059 27.8281 22.2952 27.8281 22.7866 28.0894L23.2274 28.3238Z" fill="#FFD7E5"/>
<path d="M26.6223 25.6488C27.388 25.6488 28.0085 25.0283 28.0085 24.2626C28.0085 23.4968 27.3874 22.8764 26.6223 22.8764C25.8572 22.8764 25.2361 23.4975 25.2361 24.2626C25.2361 25.0277 25.8565 25.6488 26.6223 25.6488Z" fill="#3A2C60"/>
<path d="M17.6054 22.8758C16.8428 22.8758 16.2192 23.5 16.2192 24.262C16.2192 25.024 16.8434 25.6481 17.6054 25.6481C18.3674 25.6481 18.9916 25.024 18.9916 24.262C18.9916 23.5 18.368 22.8758 17.6054 22.8758Z" fill="#3A2C60"/>
</svg>
