<svg width="28" height="28" viewBox="0 0 28 28" fill="none" xmlns="http://www.w3.org/2000/svg">
<rect width="28" height="28" rx="8" fill="#FBF0F2"/>
<path d="M15.2712 20.2777H12.7371C12.5204 20.2777 12.3447 20.4483 12.3447 20.6587V21.5555C12.3447 21.7659 12.5204 21.9364 12.7371 21.9364H15.2712C15.4879 21.9364 15.6635 21.7659 15.6635 21.5555V20.6587C15.6635 20.4483 15.4879 20.2777 15.2712 20.2777Z" stroke="#D1132A" stroke-miterlimit="10"/>
<path d="M9.7369 12.6987V17.405C9.7369 17.5796 9.58976 17.7225 9.40993 17.7225H8.08568C7.43173 17.7225 6.90039 17.2066 6.90039 16.5717V13.5241C6.90039 12.8892 7.43173 12.3733 8.08568 12.3733H9.40993C9.58976 12.3733 9.7369 12.5161 9.7369 12.6908V12.6987Z" stroke="#D1132A" stroke-miterlimit="10"/>
<path d="M21.0911 13.5242V16.5718C21.0911 17.2067 20.5598 17.7226 19.9058 17.7226H18.5816C18.4017 17.7226 18.2546 17.5798 18.2546 17.4052V12.6988C18.2546 12.5242 18.4017 12.3813 18.5816 12.3813H19.9058C20.5598 12.3813 21.0911 12.8972 21.0911 13.5321V13.5242Z" stroke="#D1132A" stroke-miterlimit="10"/>
<path d="M8.32294 12.3813V11.3337C8.32294 8.42099 10.7507 6.06384 13.7507 6.06384H14.2494C17.2494 6.06384 19.6772 8.42099 19.6772 11.3337V12.3813" stroke="#D1132A" stroke-miterlimit="10"/>
<path d="M19.677 17.7224V18.5637C19.677 19.9684 18.4999 21.1113 17.053 21.1113H15.6634" stroke="#D1132A" stroke-miterlimit="10"/>
</svg>
