<svg width="28" height="28" viewBox="0 0 28 28" fill="none" xmlns="http://www.w3.org/2000/svg">
<rect width="28" height="28" rx="8" fill="#FBF0F2"/>
<path fill-rule="evenodd" clip-rule="evenodd" d="M12.6398 17.7094L12.6413 17.7075L12.6406 17.7082L12.6398 17.7094Z" fill="#D1132A"/>
<path fill-rule="evenodd" clip-rule="evenodd" d="M18.203 14.044C18.165 14.0314 18.1246 14.015 18.0838 13.9983L18.203 14.044Z" fill="#D1132A"/>
<path fill-rule="evenodd" clip-rule="evenodd" d="M15.0795 11.6919L15.1024 11.7095C15.0948 11.7036 15.0872 11.6977 15.0795 11.6919Z" fill="#D1132A"/>
<path fill-rule="evenodd" clip-rule="evenodd" d="M20.086 8.11916C19.9136 8.0504 19.7226 8.05328 19.5528 8.1282L17.8739 8.86336C17.765 8.94254 17.5633 9.17477 17.6277 9.47026C17.3625 9.58186 17.301 9.71187 17.109 9.71187C16.9169 9.71187 16.287 9.6195 15.5149 9.50189L14.0332 9.27957C13.7255 9.255 13.0172 9.33282 12.6454 9.8406C12.6134 9.87955 12.5759 9.93916 12.5611 9.96409H11.161C11.0541 9.93599 10.8372 9.8676 10.8242 9.81887C10.8079 9.75795 10.992 9.45888 10.7296 9.23562C10.5196 9.05701 9.74147 8.44977 9.37862 8.16848C9.32249 8.12646 9.15894 8.04784 8.95384 8.0695C8.77178 8.09371 8.60537 8.19306 8.49643 8.33669L5.6965 12.0896C5.47732 12.3818 5.53062 12.7918 5.82124 13.0223L6.98083 13.9275C7.05293 13.9839 7.13581 14.0252 7.22441 14.0489C7.31289 14.0726 7.40529 14.0783 7.49603 14.0656C7.58651 14.0537 7.67363 14.0236 7.75202 13.9771C7.80477 13.9458 7.85283 13.9075 7.89489 13.8633L7.98284 13.929L7.98523 13.9306C8.05288 13.9782 8.09522 14.062 8.09522 14.1531V14.801L7.68521 15.3223C7.2646 15.8631 7.35924 16.6434 7.90442 17.0605C8.1258 17.2322 8.39499 17.3237 8.67249 17.3237C8.72238 17.3237 8.77505 17.3211 8.82529 17.3155L8.82919 17.315C8.83944 17.3134 8.84958 17.3117 8.8596 17.3099C8.88409 17.6344 9.04353 17.9332 9.30109 18.1421L9.30233 18.1431C9.52169 18.3155 9.78618 18.4018 10.0481 18.4018C10.1688 18.4018 10.2887 18.3822 10.4034 18.3467C10.4637 18.5938 10.6072 18.8104 10.8058 18.9556L10.851 18.9905L10.8529 18.9919C11.0889 19.165 11.3844 19.2386 11.6748 19.1966C11.7546 19.1856 11.8287 19.1642 11.8986 19.1369C11.9766 19.3822 12.135 19.5922 12.3563 19.7323L12.3881 19.7541L12.3899 19.7553C12.5135 19.8362 12.6522 19.8918 12.7978 19.9188C12.9432 19.9457 13.0927 19.9436 13.2373 19.9125C13.526 19.8525 13.772 19.6867 13.9385 19.4472C14.1196 19.5579 14.3269 19.6147 14.545 19.6147C14.8477 19.6147 15.1442 19.4914 15.3588 19.282C15.4826 19.1595 15.5768 19.0107 15.6342 18.8468C15.6776 18.723 15.699 18.593 15.6979 18.4625C15.8298 18.4662 15.9617 18.4464 16.0871 18.4036C16.2527 18.3471 16.4023 18.2522 16.5234 18.1267C16.6444 18.0012 16.7334 17.8488 16.7828 17.6821C16.8202 17.556 16.834 17.4245 16.8241 17.2941C17.1535 17.2803 17.4692 17.1347 17.6941 16.8703C17.8098 16.7353 17.8936 16.5764 17.9394 16.4051C17.974 16.2761 17.9863 16.1425 17.9762 16.0099C18.2742 16.0079 18.5666 15.8913 18.7879 15.6773L18.7887 15.6765C19.0413 15.4267 19.151 15.0845 19.1153 14.7505L19.8312 14.6515C19.9506 14.7429 20.1003 14.7937 20.2505 14.7937C20.3429 14.7937 20.4377 14.7761 20.5277 14.7335L22.0327 14.0757C22.3675 13.9311 22.5251 13.5453 22.3884 13.2059L20.46 8.49439C20.3904 8.32373 20.2595 8.19141 20.0874 8.11973L20.086 8.11916ZM10.5893 18.2116C10.6231 18.4484 10.7492 18.6565 10.9296 18.7881L10.9318 18.7897L10.9771 18.8246C11.1688 18.9649 11.409 19.0246 11.6453 18.9904C11.7408 18.9772 11.8306 18.9439 11.9226 18.8984L12.0444 18.8382L12.0709 18.9715C12.1195 19.2165 12.2601 19.4254 12.4691 19.5571L12.4724 19.5593L12.5049 19.5816C12.6051 19.647 12.7176 19.692 12.8357 19.7139C12.9542 19.7359 13.076 19.7341 13.1938 19.7087L13.1946 19.7085C13.4371 19.6583 13.6425 19.5171 13.7794 19.3107L13.8841 19.1522L13.9726 19.2188C14.1364 19.342 14.3328 19.4063 14.545 19.4063C14.7925 19.4063 15.0363 19.3055 15.2125 19.1336C15.3138 19.0334 15.3907 18.9117 15.4376 18.778C15.4844 18.6442 15.4999 18.5016 15.4829 18.361L15.4667 18.226L15.6012 18.2454C15.7419 18.2657 15.8855 18.2523 16.0199 18.2065C16.1543 18.1606 16.2755 18.0837 16.3734 17.9821C16.4714 17.8806 16.5432 17.7574 16.5831 17.6229C16.6229 17.4885 16.6296 17.3466 16.6026 17.2091L16.5767 17.0771L16.711 17.0851C17.0215 17.1035 17.3262 16.9813 17.5357 16.7351C17.6311 16.6236 17.7004 16.4923 17.7382 16.3512C17.776 16.2102 17.7815 16.0626 17.7544 15.9193L17.7283 15.7815L17.8677 15.7963C18.148 15.8261 18.4335 15.73 18.6427 15.5279C18.8704 15.3024 18.9564 14.983 18.8937 14.6802L18.8724 14.5773L18.9755 14.5569C18.9924 14.5535 19.008 14.5536 19.0139 14.5536L19.015 14.5536L19.0177 14.5536L19.02 14.5532L19.8957 14.4323L19.9316 14.4644C20.0177 14.5412 20.1344 14.5854 20.2505 14.5854C20.3168 14.5854 20.3809 14.5727 20.4396 14.5447L20.4427 14.5432L21.9494 13.8847C22.18 13.7852 22.2899 13.5197 22.1955 13.2846L20.2672 8.5732C20.2186 8.45422 20.1286 8.3628 20.008 8.31237C19.8874 8.26447 19.7548 8.26676 19.6369 8.31883L18.1336 8.9807C17.9264 9.06759 17.8142 9.29213 17.8585 9.5069L17.8739 9.58186L17.4095 9.83962C17.2544 9.92794 17.0689 9.9593 16.892 9.93635L16.8903 9.93614L14.1217 9.53192C13.8978 9.50053 13.6694 9.51971 13.4541 9.58807C13.2388 9.65643 13.0421 9.77213 12.8786 9.9264L12.6454 10.1483H11.0662C10.9729 10.1483 10.8791 10.1146 10.8079 10.0518L10.6144 9.88929L10.6434 9.81887C10.7212 9.62944 10.6686 9.41016 10.5009 9.27957L9.33858 8.37174C9.23688 8.29211 9.11098 8.25711 8.98321 8.27576L8.98179 8.27596C8.85572 8.29259 8.73921 8.3615 8.66316 8.46161L5.86341 12.2143C5.71254 12.4153 5.74703 12.6973 5.94977 12.8584L7.10903 13.7633C7.15899 13.8024 7.21662 13.8312 7.27826 13.8477C7.33991 13.8641 7.40432 13.8681 7.46756 13.8592L7.46852 13.8591C7.53125 13.8509 7.59155 13.83 7.64571 13.7979C7.69986 13.7658 7.74669 13.723 7.78334 13.6724L7.78661 13.6679L7.85998 13.5775L8.10628 13.7611C8.23324 13.8509 8.30356 14.0005 8.30356 14.1531V14.8731L7.84966 15.4502C7.49921 15.901 7.57916 16.5496 8.03126 16.8952C8.21607 17.0387 8.44101 17.1154 8.67249 17.1154C8.71449 17.1154 8.7588 17.1131 8.80055 17.1086C8.84487 17.1019 8.88786 17.0908 8.93679 17.0781L9.0672 17.0441V17.1789C9.0672 17.1914 9.06617 17.2024 9.06556 17.2091L9.06547 17.21L9.06472 17.2191L9.06462 17.2221C9.06462 17.5148 9.19847 17.7903 9.43166 17.9797C9.61329 18.1223 9.83194 18.1935 10.0481 18.1935C10.1819 18.1935 10.3173 18.1638 10.4447 18.1101L10.5893 18.0492V18.2061V18.2088V18.2116Z" fill="#D1132A"/>
<path fill-rule="evenodd" clip-rule="evenodd" d="M11.0611 10.3747C10.9082 10.3747 10.7605 10.3198 10.6488 10.2224L10.4672 10.0719L8.93736 12.1252C8.93307 12.1299 8.92918 12.1345 8.92708 12.137L8.92382 12.1408L8.92318 12.1415L8.91785 12.1468L8.78434 12.3237L7.9889 13.3918L8.24316 13.5785L8.24393 13.579C8.4245 13.7091 8.53489 13.924 8.53489 14.1556V14.5494L8.71653 14.3473C8.72302 14.3401 8.7306 14.3329 8.74096 14.3236L8.74657 14.3185C8.75531 14.3107 8.76639 14.3008 8.77659 14.2907C8.79041 14.277 8.80341 14.2642 8.81585 14.2527L8.85463 14.2226C9.22479 13.9354 9.75603 13.9198 10.1413 14.2152C10.3987 14.4143 10.543 14.7093 10.543 15.0303C10.543 15.0451 10.5418 15.0547 10.5401 15.0686C10.5388 15.079 10.5372 15.0916 10.5356 15.1105L10.5239 15.2503L10.661 15.2212C10.677 15.2178 10.6904 15.2147 10.7024 15.2118C10.7241 15.2067 10.7416 15.2026 10.763 15.1998C10.8934 15.1844 11.0255 15.1952 11.1516 15.2315C11.2778 15.2678 11.3958 15.3294 11.4975 15.4117C11.7893 15.6449 11.912 15.992 11.8656 16.3227L11.8463 16.4597L11.9833 16.4404C12.2088 16.4085 12.446 16.4629 12.6447 16.6092C12.8727 16.7777 13.0036 17.0365 13.0036 17.3213L13.0034 17.3281L13.0026 17.3404L13.0025 17.3415C13.0019 17.3498 13.001 17.3619 13.001 17.3747V17.4992L13.1236 17.4772C13.3547 17.4356 13.5951 17.4752 13.7948 17.6023C14.0581 17.7714 14.2146 18.0563 14.2146 18.3688C14.2146 18.5499 14.1637 18.7204 14.0674 18.8655L14.0144 18.9441C14.2058 19.0973 14.6783 19.3183 15.0374 18.9769C15.1841 18.8318 15.2604 18.6372 15.2455 18.4306C15.2332 18.2267 15.1302 18.0395 14.9687 17.9152L13.5084 16.7863C13.3809 16.6856 13.5084 16.4773 13.67 16.6172L15.3121 17.8829C15.4916 18.0102 15.9178 18.1789 16.187 17.8349C16.3245 17.6988 16.392 17.5135 16.3767 17.3231L16.3765 17.3213C16.3582 17.134 16.2599 16.9614 16.1042 16.8497L14.4098 15.6521L14.4085 15.6512C14.3573 15.6162 14.3445 15.5456 14.3825 15.4932L14.3832 15.4922C14.3919 15.48 14.403 15.4695 14.416 15.4614C14.4289 15.4533 14.4434 15.4478 14.4586 15.4453C14.4738 15.4428 14.4894 15.4433 14.5044 15.4469C14.5194 15.4504 14.5335 15.4568 14.5458 15.4657L14.5466 15.4662L16.3181 16.7198L16.3189 16.7203C16.4761 16.8295 16.6688 16.8767 16.8592 16.8529C17.0497 16.829 17.225 16.7351 17.3499 16.5903C17.4892 16.4261 17.5524 16.219 17.5255 16.0063C17.4988 15.7945 17.3883 15.6088 17.2163 15.4828L16.3627 14.8572L15.3555 14.1204C15.303 14.0804 15.2938 14.0084 15.3301 13.959C15.349 13.9347 15.3769 13.9182 15.4082 13.9136C15.4396 13.909 15.4719 13.917 15.4974 13.9351L16.0726 14.3567L17.5516 15.4377C17.8294 15.6378 18.2282 15.6074 18.475 15.3663C18.6688 15.1747 18.7289 14.891 18.6444 14.6432C18.6273 14.5818 18.5972 14.5659 18.5843 14.5656C18.569 14.5641 18.5548 14.5633 18.543 14.5627C18.5305 14.5621 18.5198 14.5615 18.5098 14.5605L18.5044 14.5601C18.4581 14.5579 18.3998 14.5489 18.3338 14.5364L18.3304 14.5358C18.2866 14.529 18.2351 14.5174 18.1837 14.5012L18.1774 14.4995C18.1406 14.4904 18.0959 14.4764 18.0535 14.4601L18.0502 14.4589C18.0013 14.442 17.9445 14.42 17.8926 14.398C17.6982 14.3155 15.7705 12.8051 14.831 12.0602C14.5755 11.857 14.2224 11.8219 13.9336 11.9733L13.6666 12.1104C13.3733 12.2625 13.0482 12.3451 12.7169 12.3514C12.3857 12.3577 12.0576 12.2876 11.7586 12.1467L11.7577 12.1463C11.5353 12.044 11.3992 11.8295 11.3992 11.585C11.3992 11.4153 11.4672 11.2568 11.5907 11.1391L12.3972 10.3747H11.0611ZM8.28132 13.348L8.36569 13.41C8.57326 13.5597 8.7081 13.7936 8.73726 14.0501C9.17905 13.7145 9.80873 13.6975 10.2683 14.0501C10.5662 14.2804 10.7394 14.6207 10.7507 14.9915C10.9047 14.975 11.0604 14.9885 11.2092 15.0313C11.362 15.0753 11.5044 15.1494 11.6277 15.2491C11.9413 15.4998 12.0943 15.8626 12.0829 16.2236C12.321 16.2181 12.5622 16.2898 12.7684 16.4415C13.0321 16.6364 13.1914 16.931 13.2101 17.2564C13.4501 17.2383 13.6954 17.2921 13.9068 17.4266C14.2295 17.6338 14.4229 17.9848 14.4229 18.3688C14.4229 18.5603 14.3761 18.7443 14.2856 18.9074C14.4749 19.0116 14.7348 18.9831 14.8909 18.8287C14.996 18.7248 15.0482 18.5891 15.0377 18.4451L15.0376 18.4437C15.0291 18.3021 14.9574 18.1693 14.8415 18.0802L13.3809 16.9511C13.239 16.8411 13.2172 16.635 13.3268 16.4965C13.3531 16.463 13.3858 16.435 13.4229 16.4141C13.4601 16.3932 13.5011 16.3798 13.5434 16.3746C13.5858 16.3694 13.6288 16.3725 13.67 16.3838C13.7111 16.3951 13.7497 16.4143 13.7834 16.4404L15.4538 17.7264C15.6322 17.8587 15.8853 17.8423 16.0402 17.6871C16.1337 17.5946 16.1792 17.4701 16.1691 17.3406C16.1564 17.2131 16.0894 17.0957 15.9833 17.0194L14.2908 15.8231L14.2901 15.8226C14.1413 15.7202 14.1081 15.5166 14.2139 15.3708C14.2385 15.3363 14.2697 15.3071 14.3057 15.2846C14.342 15.262 14.3825 15.2467 14.4247 15.2398C14.467 15.2328 14.5102 15.2342 14.5519 15.244C14.5934 15.2537 14.633 15.2718 14.6677 15.2967L16.4381 16.5494C16.5529 16.6291 16.6939 16.6636 16.8333 16.6462C16.9728 16.6287 17.1004 16.5604 17.1913 16.4552C17.2935 16.3346 17.3382 16.1858 17.3188 16.0325C17.2993 15.8781 17.2195 15.7434 17.0932 15.6508L16.2396 15.0253L15.2305 14.2871C15.0882 14.1797 15.0564 13.9777 15.1634 13.834L15.1643 13.8329C15.2164 13.7649 15.2931 13.72 15.3779 13.7075C15.4627 13.695 15.5492 13.7159 15.6188 13.7658L15.6197 13.7665L16.1956 14.1886L17.6736 15.2689C17.8688 15.4092 18.1541 15.3884 18.3288 15.2179C18.3971 15.1448 18.5279 14.9472 18.5044 14.7416C18.4724 14.7416 18.2455 14.7251 18.2132 14.7251C18.1843 14.7183 18.1544 14.7103 18.1242 14.7009C18.0799 14.6898 18.0289 14.6738 17.9804 14.6552C17.9269 14.6367 17.8656 14.6129 17.8102 14.5894C17.6367 14.5143 17.4699 14.413 17.3123 14.2915L17.3112 14.2907L14.7013 12.2233C14.5095 12.0707 14.2453 12.045 14.0304 12.1578L14.0295 12.1582L13.7623 12.2954C13.4406 12.4623 13.084 12.5527 12.7209 12.5597C12.3579 12.5666 11.9981 12.4898 11.6702 12.3354C11.3735 12.1986 11.1909 11.9099 11.1909 11.585C11.1909 11.358 11.2826 11.145 11.4471 10.9881L11.8745 10.5831H11.0611C10.8596 10.5831 10.6633 10.5111 10.5128 10.3803L10.5032 10.3723L8.95145 12.4481L8.28132 13.348Z" fill="#D1132A"/>
<path fill-rule="evenodd" clip-rule="evenodd" d="M14.087 9.75795C13.7082 9.70246 13.3189 9.82708 13.0438 10.088L11.7608 11.3034C11.6623 11.3973 11.6409 11.5099 11.6409 11.5824C11.6409 11.7014 11.6994 11.8588 11.865 11.9359C12.1305 12.0616 12.422 12.1241 12.7162 12.1185C13.0102 12.1129 13.299 12.0394 13.5593 11.9038L13.8264 11.7666L13.8278 11.7659C13.979 11.6854 14.1472 11.6459 14.3162 11.6459C14.5528 11.6459 14.7869 11.7246 14.979 11.8775L14.9798 11.8782L15.1128 11.9819L15.1135 11.9824L17.5889 13.9448L17.5896 13.9454C17.717 14.0446 17.8531 14.1255 17.99 14.185L17.9923 14.186L18.0054 14.1914C18.0445 14.2073 18.0908 14.2262 18.1355 14.2411C18.1659 14.2526 18.204 14.2671 18.2455 14.2765C18.2877 14.2904 18.331 14.3005 18.375 14.3068L18.4001 14.3114C18.4428 14.3194 18.4882 14.3279 18.5364 14.3306C18.5967 14.3383 18.6412 14.3411 18.6885 14.3411L18.6873 14.3411C19.0541 14.3411 19.5804 14.2717 19.7815 14.22L18.5573 11.2352L17.9679 9.79444L17.5259 10.0394L17.5252 10.0399C17.33 10.1502 17.0907 10.1946 16.8581 10.1621L14.087 9.75795ZM11.9043 11.4544L13.1872 10.2392C13.4797 9.96208 13.7934 9.96314 14.0461 9.964L14.087 9.96409C14.2944 9.96409 16.0016 10.2337 16.8292 10.3685C17.1055 10.4071 17.3911 10.3548 17.6277 10.2212L17.8638 10.0903L19.486 14.048L18.9602 14.1208L18.9593 14.121C18.8797 14.1305 18.7924 14.1352 18.6923 14.1328H18.6898C18.6511 14.1328 18.6145 14.1303 18.5591 14.1232L18.5509 14.1228C18.5165 14.1211 18.4859 14.1154 18.4431 14.1075L18.41 14.1013L18.4059 14.1008C18.3721 14.096 18.3389 14.0882 18.3066 14.0773L18.3008 14.0753L18.2948 14.0741C18.268 14.0684 18.242 14.0586 18.2075 14.0454L18.203 14.044C18.165 14.0314 18.1246 14.015 18.0838 13.9983L18.072 13.9935C17.9522 13.9413 17.8314 13.8696 17.7176 13.781L15.2423 11.8186L15.1083 11.7142L15.1024 11.7095L15.0795 11.6919C14.8556 11.524 14.5871 11.4376 14.3162 11.4376C14.1152 11.4376 13.9127 11.4848 13.7299 11.582L13.4633 11.7189C13.2315 11.8397 12.9743 11.9052 12.7122 11.9102C12.4501 11.9152 12.1905 11.8595 11.9542 11.7476L11.9533 11.7472C11.8779 11.7123 11.8492 11.6412 11.8492 11.5824C11.8492 11.5482 11.859 11.4977 11.9043 11.4544Z" fill="#D1132A"/>
<path fill-rule="evenodd" clip-rule="evenodd" d="M19.9172 8.52792C19.8601 8.5062 19.7929 8.50534 19.7323 8.5327L19.7315 8.53306L18.2262 9.19356C18.1075 9.24572 18.0487 9.38077 18.0999 9.50189L18.2181 9.7915L18.4264 10.295L20.0335 14.22L20.0374 14.2265C20.1049 14.3402 20.2311 14.3859 20.3435 14.3375L21.8528 13.679L21.8558 13.6776C21.9674 13.6247 22.0244 13.491 21.977 13.3737L20.0493 8.6613C20.0258 8.59817 19.9782 8.55108 19.9172 8.52792ZM19.8432 8.72264C19.8337 8.71903 19.8242 8.71979 19.8181 8.72258L19.8167 8.72321L18.31 9.38428C18.2998 9.38876 18.2943 9.39558 18.2917 9.40176C18.2892 9.40793 18.2891 9.41442 18.2919 9.42085L18.2926 9.42246L18.4106 9.71187L18.6189 10.2153L20.2201 14.1257C20.2298 14.1401 20.2391 14.1452 20.244 14.1469C20.2496 14.1489 20.255 14.1488 20.2606 14.1464L21.7675 13.4889C21.7744 13.4853 21.78 13.4791 21.7831 13.4715C21.7864 13.4635 21.7858 13.4567 21.784 13.4522L19.8542 8.73443C19.8526 8.73025 19.851 8.72797 19.8497 8.72667C19.8484 8.72536 19.8465 8.72389 19.8432 8.72264Z" fill="#D1132A"/>
<path fill-rule="evenodd" clip-rule="evenodd" d="M9.04273 8.49823H9.02474L9.01336 8.49885C8.97419 8.50315 8.90302 8.52124 8.85107 8.5912L6.05373 12.3517L6.05317 12.3525C6.01667 12.4025 6.00092 12.4646 6.00943 12.5261C6.01793 12.5875 6.05032 12.6433 6.09886 12.6816L7.25277 13.5838C7.27809 13.6041 7.30731 13.6189 7.33858 13.6274C7.36937 13.6358 7.40153 13.6378 7.43312 13.6335C7.48081 13.6282 7.54593 13.604 7.59219 13.5403L7.75076 13.3254V13.324L8.43471 12.4073L8.73595 12.0018L8.741 11.9968L10.3506 9.8406L10.3583 9.83294L10.3986 9.7789C10.4749 9.67889 10.4537 9.53265 10.353 9.45533L9.18968 8.5487C9.1372 8.50664 9.08064 8.49823 9.04273 8.49823ZM9.03235 8.70656C9.03029 8.70702 9.02822 8.70768 9.02634 8.70857C9.02387 8.70974 9.02124 8.71148 9.01842 8.71529L6.22145 12.4753C6.21679 12.4818 6.21474 12.4899 6.21579 12.4975C6.21685 12.5051 6.22088 12.5124 6.22741 12.5176L7.38292 13.4211C7.38589 13.4235 7.3894 13.4253 7.39325 13.4264C7.39711 13.4274 7.40117 13.4276 7.40514 13.4271L7.41006 13.4263C7.41006 13.4263 7.41376 13.4258 7.41634 13.4245C7.41844 13.4234 7.42082 13.4217 7.4233 13.4183L7.42392 13.4174L7.55594 13.2385C7.55919 13.2325 7.56312 13.2266 7.56786 13.2208L8.26747 12.2831L8.57817 11.8648L8.5834 11.8597L10.193 9.70346L10.2006 9.69586L10.2329 9.65251C10.2351 9.64973 10.237 9.64465 10.2361 9.6376C10.2351 9.63076 10.2317 9.62486 10.2265 9.62087L10.2257 9.62027L9.05948 8.71136C9.05713 8.70945 9.05501 8.70845 9.05273 8.70778C9.05014 8.70702 9.04682 8.70656 9.04273 8.70656H9.03235Z" fill="#D1132A"/>
<path fill-rule="evenodd" clip-rule="evenodd" d="M12.9415 17.786L12.9399 17.787L12.4183 18.402L12.417 18.4038C12.3044 18.5572 12.2649 18.7415 12.2982 18.924C12.3316 19.1072 12.4379 19.2666 12.5978 19.3686L12.6298 19.3905L12.6321 19.3921C12.7818 19.4887 12.9639 19.5211 13.1412 19.4855L13.1424 19.4852C13.3229 19.4466 13.4778 19.3419 13.578 19.1887L13.8734 18.734C13.9471 18.6244 13.9828 18.498 13.9858 18.3687C13.9998 18.2294 13.9654 17.918 13.7157 17.787C13.4035 17.6232 13.1367 17.625 12.9415 17.786ZM13.0487 17.9646C13.043 17.9681 13.039 17.9712 13.035 17.9744L13.027 17.9809L13.0181 17.9883L13.0155 17.9905L13.0125 17.9928C13.0086 17.9966 13.0041 18.0004 12.9991 18.0039L12.9938 18.0092L12.9846 18.0188L12.9767 18.027C12.9068 18.1119 12.7363 18.33 12.5843 18.5279C12.5071 18.6337 12.4799 18.7593 12.5032 18.8867C12.5262 19.0131 12.5993 19.1228 12.711 19.1937L12.7141 19.1957L12.7463 19.2178C12.8482 19.2832 12.9739 19.3065 13.0994 19.2814C13.2271 19.2539 13.3342 19.1807 13.4035 19.0748L13.6992 18.6198L13.7002 18.6183C13.7494 18.5453 13.7752 18.4588 13.7775 18.3651C13.7771 18.2024 13.6947 18.0533 13.5611 17.9686C13.4082 17.8713 13.209 17.8699 13.0487 17.9646Z" fill="#D1132A"/>
<path fill-rule="evenodd" clip-rule="evenodd" d="M10.9296 18.7881C10.7492 18.6565 10.6231 18.4484 10.5893 18.2116V18.2088V18.2061V18.0492L10.4447 18.1101C10.3173 18.1638 10.1819 18.1935 10.0481 18.1935C9.83194 18.1935 9.61329 18.1223 9.43166 17.9797C9.19847 17.7903 9.06462 17.5148 9.06462 17.2221L9.06472 17.2191L9.06547 17.21L9.06556 17.2091C9.06617 17.2024 9.0672 17.1914 9.0672 17.1789V17.0441L8.93679 17.0781C8.88786 17.0908 8.84487 17.1019 8.80055 17.1086C8.7588 17.1131 8.71449 17.1154 8.67249 17.1154C8.44101 17.1154 8.21607 17.0387 8.03126 16.8952C7.57916 16.5496 7.49921 15.901 7.84966 15.4502L8.30356 14.8731V14.1531C8.30356 14.0005 8.23324 13.8509 8.10628 13.7611L7.85998 13.5775L7.78661 13.6679L7.78334 13.6724C7.74669 13.723 7.69986 13.7658 7.64571 13.7979C7.59155 13.83 7.53125 13.8509 7.46852 13.8591L7.46756 13.8592C7.40432 13.8681 7.33991 13.8641 7.27826 13.8477C7.21662 13.8312 7.15899 13.8024 7.10903 13.7633L5.94977 12.8584C5.74703 12.6973 5.71254 12.4153 5.86341 12.2143L8.66316 8.46161C8.73921 8.3615 8.85572 8.29259 8.98179 8.27596L8.98321 8.27576C9.11098 8.25711 9.23688 8.29211 9.33858 8.37174L10.5009 9.27957C10.6686 9.41016 10.7212 9.62944 10.6434 9.81887L10.6144 9.88929L10.8079 10.0518C10.8791 10.1146 10.9729 10.1483 11.0662 10.1483H12.6454L12.8786 9.9264C13.0421 9.77213 13.2388 9.65643 13.4541 9.58807C13.6694 9.51971 13.8978 9.50053 14.1217 9.53192L16.8903 9.93614L16.892 9.93635C17.0689 9.9593 17.2544 9.92794 17.4095 9.83962L17.8739 9.58186L17.8585 9.5069C17.8142 9.29213 17.9264 9.06759 18.1336 8.9807L19.6369 8.31883C19.7548 8.26676 19.8874 8.26447 20.008 8.31237C20.1286 8.3628 20.2186 8.45422 20.2672 8.5732L22.1955 13.2846C22.2899 13.5197 22.18 13.7852 21.9494 13.8847L20.4427 14.5432L20.4396 14.5447C20.3809 14.5727 20.3168 14.5854 20.2505 14.5854C20.1344 14.5854 20.0177 14.5412 19.9316 14.4644L19.8957 14.4323L19.02 14.5532L19.0177 14.5536L19.015 14.5536L19.0139 14.5536C19.008 14.5536 18.9924 14.5535 18.9755 14.5569L18.8724 14.5773L18.8937 14.6802C18.9564 14.983 18.8704 15.3024 18.6427 15.5279C18.4335 15.73 18.148 15.8261 17.8677 15.7963L17.7283 15.7815L17.7544 15.9193C17.7815 16.0626 17.776 16.2102 17.7382 16.3512C17.7004 16.4923 17.6311 16.6236 17.5357 16.7351C17.3262 16.9813 17.0215 17.1035 16.711 17.0851L16.5767 17.0771L16.6026 17.2091C16.6296 17.3466 16.6229 17.4885 16.5831 17.6229C16.5432 17.7574 16.4714 17.8806 16.3734 17.9821C16.2755 18.0837 16.1543 18.1606 16.0199 18.2065C15.8855 18.2523 15.7419 18.2657 15.6012 18.2454L15.4667 18.226L15.4829 18.361C15.4999 18.5016 15.4844 18.6442 15.4376 18.778C15.3907 18.9117 15.3138 19.0334 15.2125 19.1336C15.0363 19.3055 14.7925 19.4063 14.545 19.4063C14.3328 19.4063 14.1364 19.342 13.9726 19.2188L13.8841 19.1522L13.7794 19.3107C13.6425 19.5171 13.4371 19.6583 13.1946 19.7085L13.1938 19.7087C13.076 19.7341 12.9542 19.7359 12.8357 19.7139C12.7176 19.692 12.6051 19.647 12.5049 19.5816L12.4724 19.5593L12.4691 19.5571C12.2601 19.4254 12.1195 19.2165 12.0709 18.9715L12.0444 18.8382L11.9226 18.8984C11.8306 18.9439 11.7408 18.9772 11.6453 18.9904C11.409 19.0246 11.1688 18.9649 10.9771 18.8246L10.9318 18.7897L10.9296 18.7881ZM9.02474 8.49823H9.04273C9.08064 8.49823 9.1372 8.50664 9.18968 8.5487L10.353 9.45533C10.4537 9.53265 10.4749 9.67889 10.3986 9.7789L10.3583 9.83294L10.3506 9.8406L8.741 11.9968L8.73595 12.0018L8.43471 12.4073L7.75076 13.324V13.3254L7.59219 13.5403C7.54593 13.604 7.48081 13.6282 7.43312 13.6335C7.40153 13.6378 7.36937 13.6358 7.33858 13.6274C7.30731 13.6189 7.27809 13.6041 7.25277 13.5838L6.09886 12.6816C6.05032 12.6433 6.01793 12.5875 6.00943 12.5261C6.00092 12.4646 6.01667 12.4025 6.05317 12.3525L6.05373 12.3517L8.85107 8.5912C8.90302 8.52124 8.97419 8.50315 9.01336 8.49885L9.02474 8.49823ZM19.7323 8.5327C19.7929 8.50534 19.8601 8.5062 19.9172 8.52792C19.9782 8.55108 20.0258 8.59817 20.0493 8.6613L21.977 13.3737C22.0244 13.491 21.9674 13.6247 21.8558 13.6776L21.8528 13.679L20.3435 14.3375C20.2311 14.3859 20.1049 14.3402 20.0374 14.2265L20.0335 14.22L18.4264 10.295L18.2181 9.7915L18.0999 9.50189C18.0487 9.38077 18.1075 9.24572 18.2262 9.19356L19.7315 8.53306L19.7323 8.5327ZM13.0438 10.088C13.3189 9.82708 13.7082 9.70246 14.087 9.75795L16.8581 10.1621C17.0907 10.1946 17.33 10.1502 17.5252 10.0399L17.5259 10.0394L17.9679 9.79444L18.5573 11.2352L19.7815 14.22C19.5804 14.2717 19.0541 14.3411 18.6873 14.3411L18.6885 14.3411C18.6412 14.3411 18.5967 14.3383 18.5364 14.3306C18.4882 14.3279 18.4428 14.3194 18.4001 14.3114L18.375 14.3068C18.331 14.3005 18.2877 14.2904 18.2455 14.2765C18.204 14.2671 18.1659 14.2526 18.1355 14.2411C18.0908 14.2262 18.0445 14.2073 18.0054 14.1914L17.9923 14.186L17.99 14.185C17.8531 14.1255 17.717 14.0446 17.5896 13.9454L17.5889 13.9448L15.1135 11.9824L15.1128 11.9819L14.9798 11.8782L14.979 11.8775C14.7869 11.7246 14.5528 11.6459 14.3162 11.6459C14.1472 11.6459 13.979 11.6854 13.8278 11.7659L13.8264 11.7666L13.5593 11.9038C13.299 12.0394 13.0102 12.1129 12.7162 12.1185C12.422 12.1241 12.1305 12.0616 11.865 11.9359C11.6994 11.8588 11.6409 11.7014 11.6409 11.5824C11.6409 11.5099 11.6623 11.3973 11.7608 11.3034L13.0438 10.088ZM10.6488 10.2224C10.7605 10.3198 10.9082 10.3747 11.0611 10.3747H12.3972L11.5907 11.1391C11.4672 11.2568 11.3992 11.4153 11.3992 11.585C11.3992 11.8295 11.5353 12.044 11.7577 12.1463L11.7586 12.1467C12.0576 12.2876 12.3857 12.3577 12.7169 12.3514C13.0482 12.3451 13.3733 12.2625 13.6666 12.1104L13.9336 11.9733C14.2224 11.8219 14.5755 11.857 14.831 12.0602C15.7705 12.8051 17.6982 14.3155 17.8926 14.398C17.9445 14.42 18.0013 14.442 18.0502 14.4589L18.0535 14.4601C18.0959 14.4764 18.1406 14.4904 18.1774 14.4995L18.1837 14.5012C18.2351 14.5174 18.2866 14.529 18.3304 14.5358L18.3338 14.5364C18.3998 14.5489 18.4581 14.5579 18.5044 14.5601L18.5098 14.5605C18.5198 14.5615 18.5305 14.5621 18.543 14.5627C18.5548 14.5633 18.569 14.5641 18.5843 14.5656C18.5972 14.5659 18.6273 14.5818 18.6444 14.6432C18.7289 14.891 18.6688 15.1747 18.475 15.3663C18.2282 15.6074 17.8294 15.6378 17.5516 15.4377L16.0726 14.3567L15.4974 13.9351C15.4719 13.917 15.4396 13.909 15.4082 13.9136C15.3769 13.9182 15.349 13.9347 15.3301 13.959C15.2938 14.0084 15.303 14.0804 15.3555 14.1204L16.3627 14.8572L17.2163 15.4828C17.3883 15.6088 17.4988 15.7945 17.5255 16.0063C17.5524 16.219 17.4892 16.4261 17.3499 16.5903C17.225 16.7351 17.0497 16.829 16.8592 16.8529C16.6688 16.8767 16.4761 16.8295 16.3189 16.7203L16.3181 16.7198L14.5466 15.4662L14.5458 15.4657C14.5335 15.4568 14.5194 15.4504 14.5044 15.4469C14.4894 15.4433 14.4738 15.4428 14.4586 15.4453C14.4434 15.4478 14.4289 15.4533 14.416 15.4614C14.403 15.4695 14.3919 15.48 14.3832 15.4922L14.3825 15.4932C14.3445 15.5456 14.3573 15.6162 14.4085 15.6512L14.4098 15.6521L16.1042 16.8497C16.2599 16.9614 16.3582 17.134 16.3765 17.3213L16.3767 17.3231C16.392 17.5135 16.3245 17.6988 16.187 17.8349C15.9178 18.1789 15.4916 18.0102 15.3121 17.8829L13.67 16.6172C13.5084 16.4773 13.3809 16.6856 13.5084 16.7863L14.9687 17.9152C15.1302 18.0395 15.2332 18.2267 15.2455 18.4306C15.2604 18.6372 15.1841 18.8318 15.0374 18.9769C14.6783 19.3183 14.2058 19.0973 14.0144 18.9441L14.0674 18.8655C14.1637 18.7204 14.2146 18.5499 14.2146 18.3688C14.2146 18.0563 14.0581 17.7714 13.7948 17.6023C13.5951 17.4752 13.3547 17.4356 13.1236 17.4772L13.001 17.4992V17.3747C13.001 17.3619 13.0019 17.3498 13.0025 17.3415L13.0026 17.3404L13.0034 17.3281L13.0036 17.3213C13.0036 17.0365 12.8727 16.7777 12.6447 16.6092C12.446 16.4629 12.2088 16.4085 11.9833 16.4404L11.8463 16.4597L11.8656 16.3227C11.912 15.992 11.7893 15.6449 11.4975 15.4117C11.3958 15.3294 11.2778 15.2678 11.1516 15.2315C11.0255 15.1952 10.8934 15.1844 10.763 15.1998C10.7416 15.2026 10.7241 15.2067 10.7024 15.2118C10.6904 15.2147 10.677 15.2178 10.661 15.2212L10.5239 15.2503L10.5356 15.1105C10.5372 15.0916 10.5388 15.079 10.5401 15.0686C10.5418 15.0547 10.543 15.0451 10.543 15.0303C10.543 14.7093 10.3987 14.4143 10.1413 14.2152C9.75603 13.9198 9.22479 13.9354 8.85463 14.2226L8.81585 14.2527C8.80341 14.2642 8.79041 14.277 8.77659 14.2907C8.76639 14.3008 8.75531 14.3107 8.74657 14.3185L8.74096 14.3236C8.7306 14.3329 8.72302 14.3401 8.71653 14.3473L8.53489 14.5494V14.1556C8.53489 13.924 8.4245 13.7091 8.24393 13.579L8.24316 13.5785L7.9889 13.3918L8.78434 12.3237L8.91785 12.1468L8.92318 12.1415L8.92382 12.1408L8.92708 12.137C8.92918 12.1345 8.93307 12.1299 8.93736 12.1252L10.4672 10.0719L10.6488 10.2224ZM8.86815 14.5364C9.02803 14.3315 9.26741 14.2269 9.50812 14.2269C9.67964 14.2269 9.85334 14.2824 10.0001 14.3927L10.0017 14.3939C10.1984 14.5478 10.3142 14.7786 10.3142 15.0278C10.3142 15.2068 10.2546 15.3764 10.1435 15.5209L10.1429 15.5218L9.31495 16.577L9.31426 16.5779C9.17932 16.7461 8.9878 16.8542 8.77526 16.8805C8.67 16.8934 8.56311 16.8857 8.46088 16.8576C8.35865 16.8296 8.26297 16.7819 8.17934 16.7171C7.90442 16.5042 7.66882 16.1253 8.01062 15.6729L8.86815 14.5364ZM10.8786 15.422L10.8811 15.422C11.0534 15.422 11.2199 15.4822 11.3703 15.6023C11.6932 15.8595 11.7442 16.3299 11.4839 16.6496L10.6369 17.6934C10.51 17.8443 10.3288 17.9398 10.1321 17.9601C9.93541 17.9805 9.7383 17.924 9.58282 17.8025L9.58151 17.8015C9.40344 17.6577 9.3011 17.4477 9.3011 17.2221C9.3011 17.0573 9.35882 16.8976 9.46748 16.7609L10.292 15.7093C10.4146 15.5498 10.5936 15.4524 10.7906 15.4282C10.8249 15.4219 10.8575 15.4219 10.8786 15.422ZM11.8234 16.7238C11.9131 16.6816 12.0111 16.6599 12.1104 16.6602L12.5041 16.7902C12.6718 16.9141 12.7697 17.1078 12.7697 17.3162C12.7697 17.4516 12.7299 17.5793 12.6531 17.6888L12.6501 17.6929L12.6493 17.6944L12.6469 17.6987C12.6453 17.7013 12.6435 17.7043 12.6413 17.7075L12.6355 17.7161L12.6338 17.7178L12.6307 17.7215L12.6285 17.724L12.6227 17.7324L12.0403 18.5036C11.9399 18.6482 11.7822 18.7381 11.6074 18.7619C11.4344 18.7855 11.2603 18.745 11.1312 18.6516L11.1265 18.6479L11.085 18.6142C11.0141 18.5624 10.9545 18.497 10.9097 18.4218C10.8645 18.3458 10.8353 18.2615 10.8241 18.1738C10.8123 18.0853 10.8186 17.9953 10.8427 17.9093C10.8669 17.8231 10.9088 17.7422 10.965 17.6723L11.5923 16.9045C11.6547 16.8278 11.7337 16.7661 11.8234 16.7238ZM12.9399 17.787L12.9415 17.786C13.1367 17.625 13.4035 17.6232 13.7157 17.787C13.9654 17.918 13.9998 18.2294 13.9858 18.3687C13.9828 18.498 13.9471 18.6244 13.8734 18.734L13.578 19.1887C13.4778 19.3419 13.3229 19.4466 13.1424 19.4852L13.1412 19.4855C12.9639 19.5211 12.7818 19.4887 12.6321 19.3921L12.6298 19.3905L12.5978 19.3686C12.4379 19.2666 12.3316 19.1072 12.2982 18.924C12.2649 18.7415 12.3044 18.5572 12.417 18.4038L12.4183 18.402L12.9399 17.787Z" fill="#D1132A"/>
<path fill-rule="evenodd" clip-rule="evenodd" d="M12.1104 16.6602C12.0111 16.6599 11.9131 16.6816 11.8234 16.7238C11.7337 16.7661 11.6547 16.8278 11.5923 16.9045L10.965 17.6723C10.9088 17.7422 10.8669 17.8231 10.8427 17.9093C10.8186 17.9953 10.8123 18.0853 10.8241 18.1738C10.8353 18.2615 10.8645 18.3458 10.9097 18.4218C10.9545 18.497 11.0141 18.5624 11.085 18.6142L11.1265 18.6479L11.1312 18.6516C11.2603 18.745 11.4344 18.7855 11.6074 18.7619C11.7822 18.7381 11.9399 18.6482 12.0403 18.5036L12.6227 17.7324L12.6285 17.724L12.6307 17.7215L12.6338 17.7178L12.6355 17.7161L12.6413 17.7075L12.6398 17.7094L12.6406 17.7082L12.6413 17.7075C12.6435 17.7043 12.6453 17.7013 12.6469 17.6987L12.6493 17.6944L12.6501 17.6929L12.6531 17.6888C12.7299 17.5793 12.7697 17.4516 12.7697 17.3162C12.7697 17.1078 12.6718 16.9141 12.5041 16.7902L12.1104 16.6602ZM12.1097 16.8686C12.0414 16.8683 11.9738 16.8832 11.9122 16.9123C11.8506 16.9413 11.7965 16.9837 11.7539 17.0361L11.1268 17.8036C11.0883 17.8515 11.0598 17.9067 11.0433 17.9655C11.0268 18.0244 11.0225 18.0859 11.0306 18.1465C11.0382 18.2058 11.058 18.2636 11.0887 18.3152C11.1194 18.3668 11.1605 18.4117 11.2096 18.4472L11.2144 18.4507L11.2556 18.4844C11.3371 18.5424 11.4552 18.5724 11.5793 18.5555C11.7019 18.5388 11.8059 18.4768 11.8701 18.3835L11.8727 18.3797L12.4547 17.6091L12.4944 17.5502C12.5379 17.4809 12.5613 17.4018 12.5613 17.3162C12.5613 17.1739 12.4948 17.0422 12.38 16.9576L12.3791 16.9569C12.3008 16.8978 12.2045 16.8686 12.1097 16.8686Z" fill="#D1132A"/>
<path fill-rule="evenodd" clip-rule="evenodd" d="M10.8811 15.422L10.8786 15.422C10.8575 15.4219 10.8249 15.4219 10.7906 15.4282C10.5936 15.4524 10.4146 15.5498 10.292 15.7093L9.46748 16.7609C9.35882 16.8976 9.3011 17.0573 9.3011 17.2221C9.3011 17.4477 9.40344 17.6577 9.58151 17.8015L9.58282 17.8025C9.7383 17.924 9.93541 17.9805 10.1321 17.9601C10.3288 17.9398 10.51 17.8443 10.6369 17.6934L11.4839 16.6496C11.7442 16.3299 11.6932 15.8595 11.3703 15.6023C11.2199 15.4822 11.0534 15.422 10.8811 15.422ZM10.8811 15.6303C10.8566 15.6303 10.8409 15.6306 10.8268 15.6334L10.8188 15.635C10.6729 15.6522 10.5446 15.7224 10.4572 15.8362L10.4566 15.837L9.63123 16.8897C9.54981 16.992 9.50944 17.1073 9.50944 17.2221C9.50944 17.3827 9.5817 17.5335 9.71175 17.6389C9.82447 17.7267 9.9676 17.7677 10.1107 17.7529C10.2538 17.7381 10.3851 17.6688 10.4769 17.56L11.3222 16.5182C11.5092 16.2887 11.4729 15.9504 11.2405 15.7652C11.1235 15.6718 11.0019 15.6303 10.8811 15.6303Z" fill="#D1132A"/>
<path fill-rule="evenodd" clip-rule="evenodd" d="M9.50812 14.2269C9.26741 14.2269 9.02803 14.3315 8.86815 14.5364L8.01062 15.6729C7.66882 16.1253 7.90442 16.5042 8.17934 16.7171C8.26297 16.7819 8.35865 16.8296 8.46088 16.8576C8.56311 16.8857 8.67 16.8934 8.77526 16.8805C8.9878 16.8542 9.17932 16.7461 9.31426 16.5779L9.31495 16.577L10.1429 15.5218L10.1435 15.5209C10.2546 15.3764 10.3142 15.2068 10.3142 15.0278C10.3142 14.7786 10.1984 14.5478 10.0017 14.3939L10.0001 14.3927C9.85334 14.2824 9.67964 14.2269 9.50812 14.2269ZM9.50812 14.4352C9.32721 14.4352 9.15012 14.5136 9.03231 14.6647C8.81642 15.0053 8.25947 15.6941 8.09522 15.9398C7.93098 16.1855 8.19581 16.4685 8.30671 16.5522C8.3687 16.6003 8.43993 16.6359 8.51596 16.6567C8.59199 16.6776 8.67145 16.6834 8.74978 16.6737C8.90729 16.6542 9.04986 16.5743 9.15143 16.4479L9.97832 15.394C10.0625 15.2844 10.1059 15.1588 10.1059 15.0278C10.1059 14.845 10.0214 14.6743 9.8741 14.5586C9.76391 14.4761 9.63453 14.4352 9.50812 14.4352Z" fill="#D1132A"/>
</svg>
